HIERARCHY
ROOT hip
{
	OFFSET 0.000000 0.000000 0.000000 
	CHANNELS 6 Xposition Yposition Zposition Zrotation Xrotation Yrotation
	JOINT abdomen
	{
		OFFSET 0.000000 3.402643 0.000000 
		CHANNELS 3 Zrotation Xrotation Yrotation
		JOINT chest
		{
			OFFSET 0.000000 8.438565 -0.680529 
			CHANNELS 3 Zrotation Xrotation Yrotation
			JOINT neck
			{
				OFFSET 0.000000 10.207942 -0.272212 
				CHANNELS 3 Zrotation Xrotation Yrotation
				JOINT head
				{
					OFFSET 0.000000 3.130431 0.000000 
					CHANNELS 3 Zrotation Xrotation Yrotation
					End Site
					{
						OFFSET 0.000000 3.130435 0.000000 
					}
				}
			}
			JOINT lCollar
			{
				OFFSET 3.470700 6.669187 -0.816635 
				CHANNELS 3 Zrotation Xrotation Yrotation
				JOINT lShldr
				{
					OFFSET 3.198488 0.000000 0.000000 
					CHANNELS 3 Zrotation Xrotation Yrotation
					JOINT lForeArm
					{
						OFFSET 10.139888 0.000000 0.000000 
						CHANNELS 3 Zrotation Xrotation Yrotation
						JOINT lHand
						{
							OFFSET 8.370511 0.000000 0.000000 
							CHANNELS 3 Zrotation Xrotation Yrotation
							End Site
							{
								OFFSET 4.083176 0.000000 0.000000 
							}
						}
					}
				}
			}
			JOINT rCollar
			{
				OFFSET -3.470700 6.669187 -0.816635 
				CHANNELS 3 Zrotation Xrotation Yrotation
				JOINT rShldr
				{
					OFFSET -3.198488 0.000000 0.000000 
					CHANNELS 3 Zrotation Xrotation Yrotation
					JOINT rForeArm
					{
						OFFSET -10.139888 0.000000 0.000000 
						CHANNELS 3 Zrotation Xrotation Yrotation
						JOINT rHand
						{
							OFFSET -8.370511 0.000000 0.000000 
							CHANNELS 3 Zrotation Xrotation Yrotation
							End Site
							{
								OFFSET -4.083176 0.000000 0.000000 
							}
						}
					}
				}
			}
		}
	}
	JOINT lThigh
	{
		OFFSET 5.308129 -1.633274 1.361059 
		CHANNELS 3 Zrotation Xrotation Yrotation
		JOINT lShin
		{
			OFFSET -2.041588 -20.007561 0.000000 
			CHANNELS 3 Zrotation Xrotation Yrotation
			JOINT lFoot
			{
				OFFSET 0.000000 -19.190928 -1.224953 
				CHANNELS 3 Zrotation Xrotation Yrotation
				End Site
				{
					OFFSET 0.000000 -2.449906 4.627600 
				}
			}
		}
	}
	JOINT rThigh
	{
		OFFSET -5.308129 -1.633274 1.361059 
		CHANNELS 3 Zrotation Xrotation Yrotation
		JOINT rShin
		{
			OFFSET 2.041588 -20.007561 0.000000 
			CHANNELS 3 Zrotation Xrotation Yrotation
			JOINT rFoot
			{
				OFFSET 0.000000 -19.190928 -1.224953 
				CHANNELS 3 Zrotation Xrotation Yrotation
				End Site
				{
					OFFSET 0.000000 -2.449906 4.627600 
				}
			}
		}
	}
}
MOTION
Frames: 9
Frame Time: 0.033333
4.849917 46.431843 2.586922 0.881855 4.686936 -12.406045 -1.322074 4.295737 2.540228 -3.736871 -3.352246 -3.734446 0.566841 2.245984 0.348975 2.262270 -4.313053 12.142879 -11.966533 0.334764 2.302586 -44.739777 -27.468847 7.014869 -20.172638 7.608503 -32.574860 6.146963 -13.989331 -10.215017 5.620662 9.912857 -2.497903 76.665909 -3.861937 17.237633 4.554626 15.184473 53.170326 -6.970766 -2.793713 3.881585 2.225078 -25.274492 -12.651190 -6.518105 34.757442 -0.453965 -0.793790 -16.280991 31.180376 -3.204462 -22.518192 9.360358 0.093063 34.993568 1.336980 5.521356 -15.291243 -11.020946 
6.052080 43.611023 7.866582 -0.019739 8.320293 -24.723703 -1.169121 6.277995 6.934506 -4.627102 -3.358187 -4.773589 0.284255 4.931575 0.825222 3.848506 -5.894976 27.222019 -17.960772 0.018781 9.279775 -23.575716 -78.023567 -1.459037 -26.675064 27.342730 -60.793537 3.480803 -12.572638 -11.848750 5.757947 9.840169 -4.344531 83.554970 -6.740727 23.137884 9.937225 21.322212 92.719315 -12.100325 -6.385186 3.297698 16.404470 -41.879681 -4.593352 -8.136135 46.491344 0.245580 -9.576761 -14.937572 36.737968 -5.042596 -27.926666 9.455005 3.169523 49.526192 0.537115 8.344589 -27.333601 -7.421524 
7.393788 41.304337 12.656930 -0.776640 11.248993 -32.514629 -1.715411 7.877372 2.119648 -3.931904 -3.195598 -4.019024 0.049206 7.109370 -0.152574 4.822774 -7.152585 44.010490 -19.673773 -1.466042 12.381441 -138.542587 -81.690399 -128.501556 -11.422923 38.798229 -94.150597 0.891065 -11.151078 -13.479286 5.313733 9.762221 -6.067669 84.813698 -10.636420 29.760557 6.518787 32.499462 120.242348 -12.474564 -11.171671 5.838991 33.015125 -48.237862 9.346581 -11.196236 55.799065 2.445468 -13.491652 -16.514206 35.334259 -8.677651 -28.799557 9.188766 6.420398 55.571526 -2.204098 14.417721 -33.924244 -5.070970 
8.821540 40.168377 16.047937 -1.150831 12.614717 -31.174417 -3.388254 8.656947 -17.732174 -0.606220 -2.851404 0.370233 -0.059189 8.134759 -3.614682 4.553179 -7.729734 60.087086 -13.761277 -3.240127 8.801771 -36.640388 -50.415020 -18.175392 -2.249045 19.884632 -122.452148 0.462734 -5.862520 -14.922083 3.776148 9.737353 -7.385161 75.931236 -16.085445 37.181026 6.028428 32.684921 123.134155 -3.302451 -16.862446 13.880843 32.003590 -51.691616 12.002569 -16.114929 65.197884 6.616905 -8.297918 -23.290533 33.138992 -12.996004 -26.117517 8.977812 8.431455 56.127682 -4.454906 17.627144 -34.958076 -8.203416 
9.959325 39.961086 17.962910 -1.211663 12.780434 -22.534861 -5.239435 8.927989 -38.803795 3.207087 -2.847100 9.153522 -0.078947 8.271472 -7.781625 3.391731 -7.915977 62.880333 -5.332210 -6.662563 1.272328 -42.331665 17.060179 -15.994843 -13.188993 -7.829086 -134.960556 2.114228 3.212898 -16.671047 1.204438 9.919672 -7.971457 63.121361 -22.885378 44.674526 8.251081 25.007044 107.654022 9.249089 -19.440149 23.432758 23.788322 -54.966923 7.329371 -17.483017 66.599922 7.840652 -4.001853 -23.686190 29.017334 -14.976516 -20.766335 9.230326 8.503131 54.612465 -4.677430 16.472553 -34.605217 -18.112289 
10.350499 40.215729 18.533489 -1.119962 12.419582 -9.993664 -5.946215 9.218569 -42.364361 4.541810 -3.903756 22.985634 -0.049308 8.007806 -10.110325 1.963288 -8.169094 37.300560 -0.323984 -10.026580 -4.720512 -32.227509 58.439240 -36.555481 -23.912033 -24.786797 -139.263336 3.784826 9.282084 -17.957521 -2.233000 10.356961 -7.530839 54.774754 -31.432980 51.719292 4.525160 20.342701 86.472427 12.419591 -15.784700 27.915367 15.194126 -56.529755 1.922842 -16.476067 63.937351 6.641235 -1.801788 -20.632950 20.490582 -13.302857 -14.877272 9.915410 7.847741 53.325626 -4.079735 13.357572 -34.766945 -32.783867 
9.916503 40.538597 18.361341 -0.978735 12.088130 4.335678 -4.818392 9.926439 -20.164379 2.169641 -5.884475 37.674076 -0.019709 7.714838 -7.878218 0.573105 -8.769097 -18.652767 -0.323984 -10.026580 -4.720512 -32.227509 58.439240 -36.555481 -23.912033 -24.786797 -139.263336 3.784826 9.282084 -17.957521 -6.550585 10.953485 -6.013694 56.696404 -44.017742 56.617424 0.514724 25.193096 66.785881 0.524674 -3.453690 23.889250 5.758823 -56.849865 -3.857302 -13.828315 59.146172 4.357335 -0.404824 -15.595398 9.397934 -8.684215 -10.263113 9.412015 6.394473 52.821030 -2.545954 9.602610 -34.441433 -46.931042 
9.748065 40.805592 19.466339 -0.788666 11.981304 21.911648 -3.114111 11.019261 3.408293 0.166852 -5.742164 33.346798 0.019695 7.392576 -1.711518 -1.257019 -9.372783 -58.945171 -0.888238 -10.977645 -1.432389 -29.561832 70.667999 -36.575836 -32.576656 -25.244900 -147.460663 4.294093 10.324883 -18.191454 -12.263592 11.590638 -4.156185 64.045990 -68.790825 55.991131 5.769878 29.752781 38.540665 -8.148982 22.132168 20.528320 -5.872890 -54.717789 -11.084265 -12.336659 55.707264 3.010842 1.701697 -12.797411 -4.063285 -2.295336 -2.951760 9.454660 6.142433 47.559570 -2.824725 6.160867 -33.122955 -64.143715 
9.965811 40.940205 22.139082 -0.599647 12.274721 39.600140 -0.869775 12.361897 26.621674 -1.711706 -3.230981 16.231335 0.049207 7.119136 -2.525630 -3.242811 -10.013563 -69.714828 -2.437513 -11.311086 0.069656 -17.929140 70.456390 -43.216507 -37.749641 -18.719938 -147.842911 4.294093 10.324883 -18.191454 -18.738989 12.096769 -2.216594 175.545563 -68.668770 174.758575 27.547188 26.189978 4.691685 -22.030977 52.357544 39.001049 -13.835201 -50.128155 -15.555306 -12.086254 55.470520 2.815481 3.898012 -14.777578 -18.586325 4.447488 5.038884 4.994622 4.924803 37.804195 -1.249761 4.508311 -28.305901 -76.518959 
